<svg xmlns="http://www.w3.org/2000/svg" viewBox="0 0 49.07 41.92"><defs><style>.cls-1{fill:#fff;}</style></defs><title>Tickets 2</title><g id="Calque_2" data-name="Calque 2"><g id="Calque_1-2" data-name="Calque 1"><path class="cls-1" d="M49.07,31.48,8,41.92,5.1,30.5l1.31-.33C8.54,29.62,9.71,27,9,24.23s-3-4.51-5.13-4l-1.31.33L0,10.44,41.06,0l2.58,10.13-1.27.36c-2.08.59-3.21,3.24-2.53,5.91s2.94,4.46,5,4l1.28-.29ZM10,38.64l35.83-9.11-1.62-6.38c-3.11,0-6-2.46-6.94-6.09s.45-7.18,3.19-8.67l-1.3-5.11L3.28,12.39l1.29,5.08c3.13,0,6.13,2.45,7.06,6.1s-.52,7.27-3.29,8.73Z"/><path class="cls-1" d="M19.56,6.86l1.65,6.51a1.35,1.35,0,0,0,2.62-.67L22.17,6.2a1.35,1.35,0,0,0-2.62.67Z"/><path class="cls-1" d="M22.35,17.84,24,24.34a1.35,1.35,0,0,0,2.62-.67L25,17.17a1.35,1.35,0,0,0-2.62.67Z"/><path class="cls-1" d="M25.33,28.52,27,35a1.35,1.35,0,0,0,2.62-.67l-1.65-6.51a1.35,1.35,0,0,0-2.62.67Z"/></g></g></svg>