<svg xmlns="http://www.w3.org/2000/svg" viewBox="0 0 97.37 50.45"><defs><style>.cls-1{fill:#fff;}</style></defs><title>Parrain 2</title><g id="Calque_2" data-name="Calque 2"><g id="Calque_1-2" data-name="Calque 1"><path class="cls-1" d="M71.47,39.72A19.86,19.86,0,1,1,91.32,19.86,19.88,19.88,0,0,1,71.47,39.72Zm0-36.2A16.34,16.34,0,1,0,87.8,19.86,16.36,16.36,0,0,0,71.47,3.52Z"/><path class="cls-1" d="M96.85,47.45a35.14,35.14,0,0,0-3.39-3,3.71,3.71,0,0,1-5.17-3.31,35.07,35.07,0,0,0-41,6.28,1.76,1.76,0,1,0,2.49,2.49,31.53,31.53,0,0,1,44.54,0,1.76,1.76,0,1,0,2.49-2.49Z"/><circle class="cls-1" cx="91.86" cy="41.41" r="2.25"/><path class="cls-1" d="M24.64,39.72A19.86,19.86,0,1,1,44.5,19.86,19.88,19.88,0,0,1,24.64,39.72Zm0-36.2A16.34,16.34,0,1,0,41,19.86,16.36,16.36,0,0,0,24.64,3.52Z"/><path class="cls-1" d="M46.64,44.48a35.14,35.14,0,0,1,3.39,3,1.76,1.76,0,1,1-2.49,2.49A31.53,31.53,0,0,0,3,49.93,1.76,1.76,0,1,1,.52,47.45a35.07,35.07,0,0,1,41-6.28Z"/></g></g></svg>