<svg xmlns="http://www.w3.org/2000/svg" viewBox="0 0 49.62 49.53"><defs><style>.cls-1{fill:none;}.cls-2{fill:#fff;}</style></defs><title>Fichier 1</title><g id="Calque_2" data-name="Calque 2"><g id="Calque_1-2" data-name="Calque 1"><path class="cls-1" d="M40.23,19.49a16,16,0,1,0-16,16A16.06,16.06,0,0,0,40.23,19.49Z"/><path class="cls-2" d="M32.1,37.31a19.49,19.49,0,1,0-15.39.19A34.63,34.63,0,0,1,32.1,37.31ZM8.15,19.49a16,16,0,1,1,16,16A16.06,16.06,0,0,1,8.15,19.49Z"/><path class="cls-2" d="M49.11,46.58a34.49,34.49,0,0,0-3.33-2.91l-5.07-3.25a34.24,34.24,0,0,0-8.62-3.1,19.44,19.44,0,0,1-15.39.19A34.15,34.15,0,0,0,.51,46.58,1.73,1.73,0,1,0,2.95,49a31,31,0,0,1,43.72,0,1.73,1.73,0,0,0,2.44-2.44Z"/><path class="cls-2" d="M32.1,37.31a34.63,34.63,0,0,0-15.39.19,19.44,19.44,0,0,0,15.39-.19Z"/></g></g></svg>