<svg xmlns="http://www.w3.org/2000/svg" viewBox="0 0 43.66 49.58"><defs><style>.cls-1{fill:none;}.cls-2{fill:#fff;}.cls-3{fill:#e92017;}</style></defs><title>Cadeau_1</title><g id="Calque_2" data-name="Calque 2"><g id="Calque_1-2" data-name="Calque 1"><rect class="cls-1" x="19.51" y="22.19" width="5.28" height="0.01"/><path class="cls-1" d="M9.89,25.93a1.63,1.63,0,0,0-1.62,1.62V44.23a1.63,1.63,0,0,0,1.62,1.62h5.89V25.93Z"/><path class="cls-1" d="M34.51,45.85a1.63,1.63,0,0,0,1.62-1.62V27.55a1.63,1.63,0,0,0-1.62-1.62h-6V45.85Z"/><path class="cls-2" d="M28.52,25.92h6a1.63,1.63,0,0,1,1.62,1.62V44.23a1.63,1.63,0,0,1-1.62,1.62h-6v3.72H15.78V45.85H9.89a1.63,1.63,0,0,1-1.62-1.62V27.55a1.63,1.63,0,0,1,1.62-1.62H5.35c-.18,0-.35,0-.52-.05a5.28,5.28,0,0,0-.3,1.69V44.23a5.36,5.36,0,0,0,5.35,5.35H34.51a5.36,5.36,0,0,0,5.35-5.35V27.55a5.29,5.29,0,0,0-.33-1.79,5.31,5.31,0,0,1-1.22.15Z"/><path class="cls-1" d="M38.31,22.19a1.63,1.63,0,0,0,1.62-1.62V16.08a1.63,1.63,0,0,0-1.62-1.62H28.52v7.73Z"/><path class="cls-1" d="M5.35,14.46a1.63,1.63,0,0,0-1.62,1.62v4.48a1.63,1.63,0,0,0,1.62,1.62H15.78V14.46Z"/><path class="cls-2" d="M38.31,10.73h-33A5.36,5.36,0,0,0,0,16.08v4.48a5.34,5.34,0,0,0,4.83,5.3A5.34,5.34,0,0,1,9.89,22.2H5.35a1.63,1.63,0,0,1-1.62-1.62V16.08a1.63,1.63,0,0,1,1.62-1.62H15.78V11.29H28.52v3.16h9.79a1.63,1.63,0,0,1,1.62,1.62v4.48a1.63,1.63,0,0,1-1.62,1.62h-3.8a5.35,5.35,0,0,1,5,3.56,5.35,5.35,0,0,0,4.13-5.2V16.08A5.36,5.36,0,0,0,38.31,10.73Z"/><path class="cls-2" d="M15.78,25.92V22.2H9.89a5.34,5.34,0,0,0-5.06,3.67c.17,0,.34.05.52.05Z"/><path class="cls-2" d="M34.51,22.2h-6v3.72h9.79a5.31,5.31,0,0,0,1.22-.15A5.35,5.35,0,0,0,34.51,22.2Z"/><rect class="cls-1" x="19.51" y="15.02" width="5.28" height="7.16"/><rect class="cls-3" x="26.66" y="25.92" width="1.86" height="0.01"/><rect class="cls-3" x="15.78" y="25.92" width="1.87" height="0.01"/><rect class="cls-2" x="15.78" y="25.93" width="1.87" height="19.92"/><rect class="cls-2" x="26.66" y="25.93" width="1.86" height="19.92"/><rect class="cls-2" x="15.78" y="14.46" width="1.87" height="7.73"/><rect class="cls-3" x="26.66" y="22.19" width="1.86" height="0.01"/><rect class="cls-3" x="15.78" y="22.19" width="1.87" height="0.01"/><rect class="cls-3" x="17.64" y="25.92" width="1.86" height="0.01"/><rect class="cls-3" x="24.79" y="25.92" width="1.87" height="0.01"/><rect class="cls-3" x="17.64" y="22.19" width="1.86" height="0.01"/><rect class="cls-3" x="24.79" y="22.19" width="1.87" height="0.01"/><polygon class="cls-2" points="26.66 25.93 24.79 25.93 24.79 45.84 19.51 45.84 19.51 25.93 17.64 25.93 17.64 45.85 15.78 45.85 15.78 49.57 28.52 49.57 28.52 45.85 26.66 45.85 26.66 25.93"/><polygon class="cls-2" points="24.79 22 24.79 26 26.66 26 28.52 26 28.52 22 26.66 22 24.79 22"/><polygon class="cls-2" points="15.78 11.29 15.78 14.46 17.64 14.46 17.64 22.19 19.51 22.19 19.51 15.02 24.79 15.02 24.79 22.19 26.66 22.19 28.52 22.19 28.52 14.46 28.52 11.29 15.78 11.29"/><polygon class="cls-2" points="15.78 22 15.78 26 17.64 26 19.51 26 19.51 22 17.64 22 15.78 22"/><path class="cls-2" d="M22.74,14.09l-1.26-.38c-3.45-1-7.23-7.23-7.69-10.43A2.43,2.43,0,0,1,14.66.64c1.28-.83,2.94.22,3.48.56A11,11,0,0,1,23,12.81ZM16.23,3a16.54,16.54,0,0,0,4.56,7.52,8.26,8.26,0,0,0-4-7.19A5.71,5.71,0,0,0,16.23,3Z"/><path class="cls-2" d="M22.06,13.76l-.3-1.28A11,11,0,0,1,26.66.88C27.2.53,28.86-.52,30.14.31A2.43,2.43,0,0,1,31,2.95c-.46,3.2-4.25,9.41-7.69,10.44ZM28.57,2.65A5.71,5.71,0,0,0,28,3a8.26,8.26,0,0,0-4,7.19A16.56,16.56,0,0,0,28.57,2.65Z"/></g></g></svg>